# AST/ASF file generated using VICON BodyLanguage
# -----------------------------------------------
:version 1.10
:name VICON
:units
  mass 1.0
  length 0.45
  angle deg
:documentation
   .ast/.asf automatically generated from VICON data using
   VICON BodyBuilder and BodyLanguage model FoxedUp or BRILLIANT.MOD
:root
   order TX TY TZ RX RY RZ
   axis XYZ
   position 0 0 0  
   orientation 0 0 0 
:bonedata
  begin
     id 1 
     name lhipjoint
     direction 0.635376 -0.686425 0.353719 
     length 2.47244 
     axis 0 0 0  XYZ
  end
  begin
     id 2 
     name lfemur
     direction 0.34202 -0.939693 0  
     length 7.25268  
     axis 0 0 20  XYZ
    dof rx ry rz
    limits (-160.0 20.0)
           (-70.0 70.0)
           (-60.0 70.0)
  end
  begin
     id 3 
     name ltibia
     direction 0.34202 -0.939693 0   
     length 7.6767   
     axis 0 0 20   XYZ
    dof rx
    limits (-10.0 170.0)
  end
  begin
     id 4 
     name lfoot
     direction 0.0803374 -0.220725 0.972022   
     length 2.22945   
     axis -90 7.62852e-016 20   XYZ
    dof rx rz
    limits (-45.0 90.0)
           (-70.0 20.0)
  end
  begin
     id 5 
     name ltoes
     direction 1.53579e-011 -4.21994e-011 1   
     length 1.11848   
     axis -90 7.62852e-016 20   XYZ
    dof rx
    limits (-90.0 20.0)
  end
  begin
     id 6 
     name rhipjoint
     direction -0.664428 -0.664335 0.342336   
     length 2.55466  
     axis 0 0 0  XYZ 
  end
  begin
     id 7 
     name rfemur
     direction -0.34202 -0.939693 0   
     length 6.83172   
     axis 0 0 -20   XYZ
    dof rx ry rz
    limits (-160.0 20.0)
           (-70.0 70.0)
           (-70.0 60.0)
  end
  begin
     id 8 
     name rtibia
     direction -0.34202 -0.939693 0   
     length 7.62692   
     axis 0 0 -20   XYZ
    dof rx
    limits (-10.0 170.0)
 end
 begin
     id 9 
     name rfoot
     direction -0.0949276 -0.260811 0.960711   
     length 2.19684  
     axis -90 -7.62852e-016 -20   XYZ
    dof rx rz
    limits (-45.0 90.0)
           (-20.0 70.0)
  end
  begin
     id 10 
     name rtoes
     direction -1.53543e-011 -4.2183e-011 1   
     length 1.09848   
     axis -90 -7.62852e-016 -20   XYZ
    dof rx
    limits (-90.0 20.0)
  end
  begin
     id 11 
     name lowerback
     direction 0.0118782 0.999815 -0.0151555   
     length 2.15772   
     axis 0 0 0   XYZ
    dof rx ry rz
    limits (-20.0 45.0)
           (-30.0 30.0)
           (-30.0 30.0)
  end
  begin
     id 12 
     name upperback
     direction 0.00130825 0.999065 0.0432113   
     length 2.14863   
     axis 0 0 0   XYZ
    dof rx ry rz
    limits (-20.0 45.0)
           (-30.0 30.0)
           (-30.0 30.0)
  end
  begin
     id 13 
     name thorax
     direction -0.00347005 0.998773 0.0494011   
     length 2.14936   
     axis 0 0 0   XYZ
    dof rx ry rz
    limits (-20.0 45.0)
           (-30.0 30.0)
           (-30.0 30.0)
  end
  begin
     id 14 
     name lowerneck
     direction -0.0262159 0.99424 0.103921   
     length 1.69373   
     axis 0 0 0   XYZ
    dof rx ry rz
    limits (-20.0 45.0)
           (-30.0 30.0)
           (-30.0 30.0)
  end
  begin
     id 15 
     name upperneck
     direction 0.0353511 0.977394 -0.20845   
     length 1.70857   
     axis 0 0 0   XYZ
    dof rx ry rz
    limits (-20.0 45.0)
           (-30.0 30.0)
           (-30.0 30.0)
  end
  begin
     id 16
     name head
     direction 0.0139214 0.996594 -0.0812836  
     length 1.72777  
     axis 0 0 0   XYZ
    dof rx ry rz
    limits (-20.0 45.0)
           (-30.0 30.0)
           (-30.0 30.0)
  end
  begin
     id 17 
     name lclavicle
     direction 0.841247 0.537205 -0.0609508  
     length 3.55371  
     axis 0 0 0   XYZ
    dof ry rz
    limits (-20.0 10.0)
           (0.0 20.0)
  end
  begin
     id 18 
     name lhumerus
     direction 1 -4.48964e-011 1.60116e-018   
     length 4.91377   
     axis -180 -30 -90   XYZ
    dof rx ry rz
    limits (-60.0 90.0)
           (-90.0 90.0)
           (-90.0 90.0)
  end
  begin
     id 19
     name lradius
     direction 1 -4.48989e-011 -8.93847e-027   
     length 3.00291   
     axis -180 -30 -90   XYZ
    dof rx
    limits (-10.0 170.0)
  end
  begin
     id 20
     name lwrist
     direction 1 -4.48932e-011 -7.31504e-027   
     length 1.50145   
     axis 5.74121e-015 90 90   XYZ
    dof ry
    limits (-180.0 0.0)
 end
  begin
     id 21 
     name lhand
     direction 1 -4.48971e-011 -1.46301e-026   
     length 0.450922   
     axis 9.33524e-015 90 90   XYZ
    dof rx rz
    limits (-90.0 90.0)
           (-45.0 45.0)
  end
  begin
     id 22 
     name lfingers
     direction 1 -4.49039e-011 -2.92602e-026   
     length 0.363545   
     axis 1.86705e-014 90 90   XYZ
    dof rx
    limits (0.0 90.0)
  end
  begin
     id 23
     name lthumb
     direction 0.707107 -6.34941e-011 0.707107   
     length 0.52198   
     axis -90 45 2.85299e-015   XYZ
    dof rx rz
    limits (-45.0 45.0)
           (-45.0 45.0)
  end
  begin
     id 24 
     name rclavicle
     direction -0.825079 0.56158 -0.0622297   
     length 3.39909  
     axis 0 0 0   XYZ 
    dof ry rz
    limits (-10.0 20.0)
           (-20.0 0.0)
  end
  begin
     id 25 
     name rhumerus
     direction -1 -4.48965e-011 1.61691e-027  
     length 4.86725   
     axis -180 30 90   XYZ
    dof rx ry rz
    limits (-90.0 60.0)
           (-90.0 90.0)
           (-90.0 90.0)
  end
  begin
     id 26 
     name rradius
     direction -1 -4.48964e-011 -2.25776e-027   
     length 3.17144   
     axis -180 30 90   XYZ
    dof rx
    limits (-10.0 170.0)
  end
  begin
     id 27 
     name rwrist
     direction -1 -4.48961e-011 -7.31504e-027   
     length 1.58572   
     axis 5.74121e-015 -90 -90   XYZ
    dof ry
    limits (-180.0 0.0)
  end
  begin
     id 28
     name rhand
     direction -1 -4.49013e-011 -1.46301e-026   
     length 0.419368   
     axis 9.33524e-015 -90 -90   XYZ
    dof rx rz
    limits (-90.0 90.0)
           (-45.0 45.0)
  end
  begin
     id 29
     name rfingers
     direction -1 -4.489e-011 -2.92602e-026   
     length 0.338105   
     axis 1.86705e-014 -90 -90   XYZ
    dof rx
    limits (0.0 90.0)
  end
  begin
     id 30
     name rthumb
     direction -0.707107 -6.35022e-011 0.707107   
     length 0.485453   
     axis -90 -45 -2.85299e-015   XYZ
    dof rx rz
    limits (-45.0 45.0)
           (-45.0 45.0)
  end
:hierarchy
  begin
    root lhipjoint rhipjoint lowerback
    lhipjoint lfemur
    lfemur ltibia
    ltibia lfoot
    lfoot ltoes
    rhipjoint rfemur
    rfemur rtibia
    rtibia rfoot
    rfoot rtoes
    lowerback upperback
    upperback thorax
    thorax lowerneck lclavicle rclavicle
    lowerneck upperneck
    upperneck head
    lclavicle lhumerus
    lhumerus lradius
    lradius lwrist
    lwrist lhand lthumb
    lhand lfingers
    rclavicle rhumerus
    rhumerus rradius
    rradius rwrist
    rwrist rhand rthumb
    rhand rfingers
  end

#!OML:ASF H:\Swim 2\Project 1\Capture day 1\Session 1\male.ASF
:FULLY-SPECIFIED
:DEGREES
705
root 0.124055 15.1272 8.96829 108.338 30.2157 0.724647
lowerback -15.4491 1.76859 5.79948
upperback -10.4122 1.85172 -5.85889
thorax -2.15997 0.585084 -9.35315
lowerneck -29.3546 -0.417407 7.73961
upperneck 41.4478 3.28973 -15.3903
head 24.1321 0.83482 -9.51175
rclavicle 3.57812e-015 1.2424e-014
rhumerus -24.677 33.6318 -75.4562
rradius 81.5713
rwrist -3.10474
rhand -35.6776 6.87992
rfingers 7.12502
rthumb -8.79874 -22.9167
lclavicle 3.57812e-015 1.2424e-014
lhumerus -650.276 34.2458 697.575
lradius 38.4814
lwrist 70.2351
lhand -38.6413 -6.42605
lfingers 7.12502
lthumb -11.6578 23.2296
rfemur -33.477 0.86044 20.756
rtibia 66.3958
rfoot 50.0001 9.78173
rtoes 28.4543
lfemur -49.2903 -6.53526 -5.28343
ltibia 27.5274
lfoot -11.6789 7.83462
ltoes -23.4137
706
root 0.0809294 15.121 8.98945 108.303 30.2244 0.346375
lowerback -15.6594 1.50348 6.80379
upperback -10.5523 1.33807 -6.47449
thorax -2.31966 0.225661 -10.7322
lowerneck -29.702 0.0554345 7.89076
upperneck 41.4685 3.62463 -14.7889
head 24.3445 1.0293 -9.12522
rclavicle -2.23881e-014 2.28913e-015
rhumerus -27.1056 34.3435 -79.3911
rradius 79.7067
rwrist -3.32315
rhand -35.9119 7.11613
rfingers 7.12502
rthumb -9.02475 -22.6708
lclavicle -2.23881e-014 2.28913e-015
lhumerus -649.563 33.8069 697.614
lradius 38.2043
lwrist 68.3928
lhand -38.6253 -6.47099
lfingers 7.12502
lthumb -11.6423 23.1856
rfemur -35.0272 1.05459 20.6658
rtibia 67.206
rfoot 50.3143 9.97453
rtoes 28.5978
lfemur -48.5156 -6.26119 -5.06672
ltibia 29.1134
lfoot -12.1156 7.31674
ltoes -23.5322
707
root 0.0382221 15.1166 9.01052 108.324 30.2877 0.0423864
lowerback -15.9022 1.22929 7.94199
upperback -10.6772 0.785941 -7.07168
thorax -2.49882 -0.169707 -12.2054
lowerneck -30.0746 0.545387 8.02788
upperneck 41.5028 3.94821 -14.1046
head 24.5621 1.22413 -8.6845
rclavicle -7.95139e-015 -6.01324e-014
rhumerus -29.3484 34.9613 -83.1811
rradius 77.5788
rwrist -3.49234
rhand -36.1212 7.30646
rfingers 7.12502
rthumb -9.22678 -22.4717
lclavicle -7.95139e-015 -6.01324e-014
lhumerus -648.838 33.3793 697.841
lradius 37.9346
lwrist 66.4061
lhand -38.4296 -6.59331
lfingers 7.12502
lthumb -11.4536 23.0738
rfemur -36.6132 1.25314 20.6296
rtibia 67.613
rfoot 50.5634 10.1313
rtoes 28.7421
lfemur -47.6732 -5.90994 -4.86517
ltibia 30.727
lfoot -12.5386 6.75176
ltoes -23.752
708
root -0.00428631 15.1135 9.03125 108.35 30.3568 -0.213298
lowerback -16.1565 0.945363 9.10301
upperback -10.7721 0.208224 -7.64204
thorax -2.69268 -0.588081 -13.6971
lowerneck -30.4637 1.03977 8.16351
upperneck 41.5535 4.25287 -13.375
head 24.7877 1.41682 -8.21839
rclavicle 3.4191e-014 2.5345e-014
rhumerus -31.4285 35.5691 -86.7385
rradius 75.2811
rwrist -3.57576
rhand -36.2577 7.47776
rfingers 7.12502
rthumb -9.35843 -22.2945
lclavicle 3.4191e-014 2.5345e-014
lhumerus -648.191 32.9662 698.107
lradius 37.6848
lwrist 64.4589
lhand -38.1573 -6.81361
lfingers 7.12502
lthumb -11.191 22.8679
rfemur -38.1807 1.47632 20.5839
rtibia 67.6157
rfoot 50.7233 10.2459
rtoes 28.8818
lfemur -46.7225 -5.48334 -4.73479
ltibia 32.361
lfoot -12.8884 6.09084
ltoes -23.8913
709
root -0.0474224 15.1122 9.05068 108.377 30.4235 -0.427791
lowerback -16.4216 0.657974 10.2217
upperback -10.8385 -0.378123 -8.17171
thorax -2.89565 -1.01573 -15.1471
lowerneck -30.8401 1.52311 8.3295
upperneck 41.6115 4.52417 -12.6568
head 25.0062 1.6027 -7.76967
rclavicle 2.94201e-014 -1.70955e-014
rhumerus -33.3897 36.1955 -90.0268
rradius 72.8906
rwrist -3.46124
rhand -36.2754 7.61596
rfingers 7.12502
rthumb -9.37556 -22.1555
lclavicle 2.94201e-014 -1.70955e-014
lhumerus -647.687 32.5715 698.291
lradius 37.4696
lwrist 62.7232
lhand -37.8667 -7.15275
lfingers 7.12502
lthumb -10.9107 22.5438
rfemur -39.7181 1.75567 20.5138
rtibia 67.2233
rfoot 50.7673 10.326
rtoes 28.9849
lfemur -45.6705 -4.98653 -4.66452
ltibia 34.0162
lfoot -13.1444 5.37599
ltoes -23.9186
710
root -0.0915121 15.1124 9.06895 108.383 30.481 -0.613833
lowerback -16.6864 0.374122 11.2419
upperback -10.8736 -0.954253 -8.65221
thorax -3.09557 -1.43649 -16.5019
lowerneck -31.1856 1.99001 8.53919
upperneck 41.666 4.7734 -12.0024
head 25.2118 1.78318 -7.36918
rclavicle -6.20208e-014 -9.70069e-014
rhumerus -35.2937 36.8857 -93.0459
rradius 70.4811
rwrist -3.235
rhand -36.2502 7.82053
rfingers 7.12502
rthumb -9.35121 -21.952
lclavicle -6.20208e-014 -9.70069e-014
lhumerus -647.356 32.1968 698.32
lradius 37.2889
lwrist 61.3321
lhand -37.5987 -7.62731
lfingers 7.12502
lthumb -10.6522 22.0827
rfemur -41.1975 2.12219 20.3999
rtibia 66.4476
rfoot 50.6987 10.3363
rtoes 29.0592
lfemur -44.5043 -4.42535 -4.64639
ltibia 35.6843
lfoot -13.4208 4.60154
ltoes -24.1315
711
root -0.137055 15.1145 9.08586 108.403 30.5539 -0.741394
lowerback -16.7405 0.0637776 12.1536
upperback -11.2262 -1.55389 -9.36693
thorax -3.15551 -1.82873 -17.4207
lowerneck -31.4809 2.43184 8.76952
upperneck 41.7051 5.0094 -11.4249
head 25.3874 1.95486 -7.01479
rclavicle -1.01778e-013 -1.92821e-014
rhumerus -37.193 37.6153 -95.8322
rradius 68.0586
rwrist -2.80091
rhand -36.3917 8.21303
rfingers 7.12502
rthumb -9.48772 -21.5534
lclavicle -1.01778e-013 -1.92821e-014
lhumerus -647.216 31.836 698.131
lradius 37.1407
lwrist 60.3784
lhand -37.3762 -8.22048
lfingers 7.12502
lthumb -10.4376 21.5004
rfemur -42.627 2.58651 20.2637
rtibia 65.2993
rfoot 50.5321 10.2635
rtoes 29.1026
lfemur -43.2603 -3.79695 -4.63206
ltibia 37.3545
lfoot -13.7181 3.7887
ltoes -24.4519
712
root -0.183536 15.1186 9.10246 108.452 30.644 -0.808721
lowerback -16.9968 -0.201254 12.9552
upperback -11.2578 -2.08252 -9.75601
thorax -3.31261 -2.20646 -18.4826
lowerneck -31.723 2.84215 9.00002
upperneck 41.7273 5.24111 -10.9322
head 25.5321 2.11646 -6.70556
rclavicle -2.8625e-014 -2.0276e-013
rhumerus -39.122 38.337 -98.3942
rradius 65.6849
rwrist -2.20135
rhand -36.6245 8.72772
rfingers 7.12502
rthumb -9.71235 -21.0284
lclavicle -2.8625e-014 -2.0276e-013
lhumerus -647.25 31.4823 697.711
lradius 37.0189
lwrist 59.8889
lhand -37.2071 -8.87673
lfingers 7.12502
lthumb -10.2744 20.8523
rfemur -44.0065 3.14912 20.091
rtibia 63.7821
rfoot 50.3157 10.0905
rtoes 29.1548
lfemur -41.9578 -3.10087 -4.60362
ltibia 39.0093
lfoot -14.0617 2.95551
ltoes -24.9237
713
root -0.22994 15.1243 9.12068 108.539 30.7508 -0.806278
lowerback -17.2526 -0.449517 13.6384
upperback -11.2758 -2.57447 -10.0818
thorax -3.4549 -2.55542 -19.4003
lowerneck -31.9085 3.21491 9.20618
upperneck 41.7252 5.47939 -10.532
head 25.6383 2.26577 -6.43765
rclavicle -2.8625e-014 -2.8625e-014
rhumerus -41.1082 39.0104 -100.748
rradius 63.4049
rwrist -1.50246
rhand -36.9469 9.32262
rfingers 7.12502
rthumb -10.0234 -20.4187
lclavicle -2.8625e-014 -2.8625e-014
lhumerus -647.453 31.1206 697.048
lradius 36.9212
lwrist 59.8427
lhand -37.096 -9.49641
lfingers 7.12502
lthumb -10.1672 20.2379
rfemur -45.3179 3.80049 19.8666
rtibia 61.8911
rfoot 50.0472 9.83665
rtoes 29.1945
lfemur -40.6092 -2.34354 -4.54797
ltibia 40.63
lfoot -14.4577 2.08676
ltoes -25.4847
714
root -0.275144 15.1313 9.14202 108.69 30.8683 -0.723919
lowerback -17.5128 -0.68102 14.2222
upperback -11.2914 -3.03206 -10.3535
thorax -3.58739 -2.8784 -20.1925
lowerneck -32.0471 3.54555 9.3524
upperneck 41.7045 5.72303 -10.191
head 25.7067 2.39932 -6.185
rclavicle -1.90833e-014 7.7526e-014
rhumerus -43.1688 39.5982 -102.918
rradius 61.2748
rwrist -0.795692
rhand -37.2257 9.89115
rfingers 7.12502
rthumb -10.2924 -19.837
lclavicle -1.90833e-014 7.7526e-014
lhumerus -647.793 30.7349 696.177
lradius 36.8412
lwrist 60.1307
lhand -37.0377 -9.95552
lfingers 7.12502
lthumb -10.111 19.7816
rfemur -46.5596 4.54135 19.5588
rtibia 59.6177
rfoot 49.7449 9.46724
rtoes 29.4061
lfemur -39.2463 -1.54184 -4.4563
ltibia 42.1976
lfoot -14.8467 1.18624
ltoes -26.1844
715
root -0.318102 15.139 9.16802 108.906 30.9913 -0.565554
lowerback -17.7655 -0.895016 14.719
upperback -11.3118 -3.45365 -10.5795
thorax -3.71908 -3.1762 -20.8729
lowerneck -32.1409 3.82308 9.42124
upperneck 41.6667 5.95598 -9.89078
head 25.73 2.51042 -5.93814
rclavicle -1.59028e-014 3.85642e-014
rhumerus -45.3137 40.0604 -104.921
rradius 59.3386
rwrist -0.17089
rhand -37.375 10.3617
rfingers 7.12502
rthumb -10.4364 -19.3593
lclavicle -1.59028e-014 3.85642e-014
lhumerus -648.218 30.3081 695.158
lradius 36.7681
lwrist 60.6204
lhand -37.0376 -10.1471
lfingers 7.12502
lthumb -10.1109 19.59
rfemur -47.7066 5.39025 19.1374
rtibia 56.9533
rfoot 49.3969 9.0209
rtoes 29.6835
lfemur -37.8795 -0.723192 -4.32365
ltibia 43.7015
lfoot -15.1636 0.287366
ltoes -26.8644
716
root -0.357631 15.1466 9.19985 109.173 31.1216 -0.324739
lowerback -17.9896 -1.09227 15.1587
upperback -11.334 -3.84138 -10.7696
thorax -3.857 -3.45248 -21.4702
lowerneck -32.196 4.03854 9.38159
upperneck 41.6197 6.16267 -9.5905
head 25.7051 2.59298 -5.67176
rclavicle 7.63333e-014 1.00187e-013
rhumerus -47.5428 40.3731 -106.762
rradius 57.6342
rwrist 0.298799
rhand -37.2932 10.6846
rfingers 7.12502
rthumb -10.3574 -19.0403
lclavicle 7.63333e-014 1.00187e-013
lhumerus -648.668 29.831 694.072
lradius 36.69
lwrist 61.1621
lhand -37.0833 -10.0013
lfingers 7.12502
lthumb -10.155 19.7336
rfemur -48.7007 6.3331 18.5903
rtibia 53.8854
rfoot 48.9975 8.46874
rtoes 30.0263
lfemur -36.4949 0.0924697 -4.14539
ltibia 45.128
lfoot -15.3453 -0.641881
ltoes -27.2413
717
root -0.394193 15.1541 9.23658 109.518 31.2472 -0.00421144
lowerback -18.2033 -1.27236 15.5455
upperback -11.3723 -4.19708 -10.9318
thorax -4.00591 -3.71034 -21.9961
lowerneck -32.2043 4.19053 9.25651
upperneck 41.561 6.33141 -9.30079
head 25.6273 2.64673 -5.40185
rclavicle 5.725e-014 1.51474e-013
rhumerus -49.8476 40.5202 -108.436
rradius 56.187
rwrist 0.64657
rhand -36.878 10.731
rfingers 7.12502
rthumb -9.95691 -19.0135
lclavicle 5.725e-014 1.51474e-013
lhumerus -649.088 29.2967 693.006
lradius 36.6013
lwrist 61.6237
lhand -37.1701 -9.50138
lfingers 7.12502
lthumb -10.2387 20.2294
rfemur -49.5612 7.51553 17.8211
rtibia 50.4173
rfoot 48.488 7.65482
rtoes 30.3503
lfemur -35.1351 0.848173 -3.91806
ltibia 46.4712
lfoot -15.3132 -1.49988
ltoes -26.9004
718
root -0.426676 15.1607 9.2805 109.893 31.3623 0.3857
lowerback -18.3726 -1.43644 15.8956
upperback -11.4133 -4.51965 -11.0802
thorax -4.16819 -3.94999 -22.4776
lowerneck -32.1755 4.27837 9.04802
upperneck 41.5001 6.45289 -9.00871
head 25.5087 2.67162 -5.12676
rclavicle 6.36111e-014 1.51474e-013
rhumerus -52.1895 40.4729 -109.933
rradius 54.978
rwrist 0.821735
rhand -36.1428 10.593
rfingers 7.12502
rthumb -9.24758 -19.1842
lclavicle 6.36111e-014 1.51474e-013
lhumerus -649.413 28.7189 692.064
lradius 36.4948
lwrist 61.9002
lhand -37.2583 -8.66677
lfingers 7.12502
lthumb -10.3238 21.0598
rfemur -50.2054 8.72309 16.8965
rtibia 46.5452
rfoot 47.964 6.75204
rtoes 30.5482
lfemur -33.7456 1.51887 -3.65618
ltibia 47.7136
lfoot -15.1162 -2.26356
ltoes -26.4718
